<?xml version="1.0"?>
<svg xmlns="http://www.w3.org/2000/svg" xmlns:xlink="http://www.w3.org/1999/xlink" version="1.1" id="Capa_1" x="0px" y="0px" viewBox="0 0 512 512" style="enable-background:new 0 0 512 512;" xml:space="preserve" class=""><g><g><path style="fill:#2196F3" d="M475.613,475.613L475.613,475.613c-48.516,48.516-127.179,48.516-175.687,0L36.387,212.074  c-48.516-48.516-48.516-127.179,0-175.687l0,0c48.516-48.516,127.179-48.516,175.687,0l263.539,263.539  C524.129,348.442,524.129,427.096,475.613,475.613z" data-original="#2196F3" class="" data-old_color="#366DB6"/><g>
	<path style="fill:#FFFFFF" d="M173.524,82.476c-2.26,0-4.52-0.865-6.241-2.586c-24.09-24.09-63.294-24.09-87.384,0   c-3.443,3.452-9.039,3.452-12.482,0c-3.452-3.452-3.452-9.031,0-12.482c30.976-30.976,81.382-30.976,112.358,0   c3.452,3.452,3.452,9.031,0,12.482C178.044,81.62,175.784,82.476,173.524,82.476z" data-original="#FFFFFF" class="" data-old_color="#1F436D"/>
	
		<rect x="130.427" y="245.825" transform="matrix(0.7071 -0.7071 0.7071 0.7071 -105.475 254.6655)" style="fill:#FFFFFF" width="248.488" height="17.655" data-original="#FFFFFF" class="" data-old_color="#1F436D"/>
	<path style="fill:#FFFFFF" d="M217.22,126.173c-2.26,0-4.52-0.865-6.241-2.586L167.283,79.89c-24.09-24.09-63.294-24.09-87.384,0   c-3.443,3.452-9.039,3.452-12.482,0c-3.452-3.452-3.452-9.031,0-12.482c30.976-30.976,81.382-30.976,112.358,0l43.697,43.697   c3.452,3.452,3.452,9.031,0,12.482C221.74,125.308,219.48,126.173,217.22,126.173z" data-original="#FFFFFF" class="" data-old_color="#1F436D"/>
</g><circle style="fill:#FFC107" cx="141.24" cy="370.76" r="141.24" data-original="#FFC107" class="active-path" data-old_color="#DD352E"/><path style="fill:#FFFFFF" d="M238.345,379.586H44.138c-4.873,0-8.828-3.955-8.828-8.828c0-4.873,3.955-8.828,8.828-8.828h194.207  c4.873,0,8.828,3.955,8.828,8.828C247.172,375.631,243.218,379.586,238.345,379.586z" data-original="#FFFFFF" class="" data-old_color="#FFFFFF"/></g></g> </svg>
