<?xml version="1.0" encoding="iso-8859-1"?>
<!-- Generator: Adobe Illustrator 19.0.0, SVG Export Plug-In . SVG Version: 6.00 Build 0)  -->
<svg version="1.1" id="Capa_1" xmlns="http://www.w3.org/2000/svg" xmlns:xlink="http://www.w3.org/1999/xlink" x="0px" y="0px"
	 viewBox="0 0 512 512" style="enable-background:new 0 0 512 512;" xml:space="preserve">
<g>
	<g>
		<path d="M224.586,115.934l-42.24-42.24c-29.943-29.943-78.669-29.943-108.612,0c-3.336,3.337-3.336,8.73,0,12.066
			c3.328,3.337,8.738,3.337,12.066,0c23.287-23.287,61.184-23.287,84.471,0l42.24,42.24c1.664,1.664,3.849,2.5,6.033,2.5
			c2.185,0,4.369-0.836,6.042-2.5C227.922,124.663,227.922,119.27,224.586,115.934z"/>
	</g>
</g>
<g>
	<g>
		<path d="M345.691,163.763c-3.337-3.336-8.73-3.336-12.066,0l-99.311,99.32c-3.336,3.336-3.336,8.73,0,12.066
			c1.664,1.664,3.849,2.5,6.033,2.5s4.369-0.836,6.033-2.5l99.311-99.319C349.027,172.493,349.027,167.1,345.691,163.763z"/>
	</g>
</g>
<g>
	<g>
		<path d="M145.098,221.867c-79.991,0-145.067,65.075-145.067,145.067S65.106,512,145.098,512s145.067-65.075,145.067-145.067
			S225.089,221.867,145.098,221.867z M145.098,494.933c-70.579,0-128-57.421-128-128s57.421-128,128-128s128,57.421,128,128
			S215.677,494.933,145.098,494.933z"/>
	</g>
</g>
<g>
	<g>
		<path d="M238.964,358.4H51.231c-4.71,0-8.533,3.823-8.533,8.533s3.823,8.533,8.533,8.533h187.733c4.71,0,8.533-3.823,8.533-8.533
			S243.675,358.4,238.964,358.4z"/>
	</g>
</g>
<g>
	<g>
		<path d="M474.356,292.429L219.602,37.675C195.308,13.38,163.009,0,128.654,0C94.299,0,62,13.38,37.706,37.675
			C13.411,61.961,0.031,94.268,0.031,128.623c0,34.355,13.38,66.654,37.675,90.957l34.449,34.449
			c2.705,2.705,6.886,3.285,10.223,1.399c19.14-10.795,40.823-16.495,62.72-16.495c70.579,0,128,57.421,128,128
			c0,21.897-5.7,43.58-16.486,62.72c-1.886,3.337-1.306,7.518,1.399,10.223l34.449,34.449C316.754,498.62,349.053,512,383.408,512
			s66.654-13.38,90.948-37.675C524.507,424.183,524.507,342.579,474.356,292.429z M462.29,462.259
			c-21.069,21.069-49.084,32.674-78.882,32.674s-57.813-11.605-78.882-32.674l-29.978-29.978
			c10.232-20.233,15.616-42.692,15.616-65.348c0-79.991-65.075-145.067-145.067-145.067c-22.656,0-45.107,5.385-65.348,15.616
			l-29.978-29.978c-21.069-21.069-32.674-49.084-32.674-78.882S28.703,70.81,49.772,49.741
			c21.069-21.069,49.084-32.674,78.882-32.674s57.813,11.605,78.882,32.674L462.29,304.495
			C505.793,347.989,505.785,418.765,462.29,462.259z"/>
	</g>
</g>
<g>
</g>
<g>
</g>
<g>
</g>
<g>
</g>
<g>
</g>
<g>
</g>
<g>
</g>
<g>
</g>
<g>
</g>
<g>
</g>
<g>
</g>
<g>
</g>
<g>
</g>
<g>
</g>
<g>
</g>
</svg>
